<?xml version="1.0" encoding="UTF-8" standalone="no"?>
<svg
   xmlns:dc="http://purl.org/dc/elements/1.1/"
   xmlns:cc="http://creativecommons.org/ns#"
   xmlns:rdf="http://www.w3.org/1999/02/22-rdf-syntax-ns#"
   xmlns:svg="http://www.w3.org/2000/svg"
   xmlns="http://www.w3.org/2000/svg"
   viewBox="0 0 171.11067 69.332664"
   height="69.332664"
   width="171.11067"
   xml:space="preserve"
   id="svg2"
   version="1.1"><metadata
     id="metadata8"><rdf:RDF><cc:Work
         rdf:about=""><dc:format>image/svg+xml</dc:format><dc:type
           rdf:resource="http://purl.org/dc/dcmitype/StillImage" /></cc:Work></rdf:RDF></metadata><defs
     id="defs6"><clipPath
       id="clipPath18"
       clipPathUnits="userSpaceOnUse"><path
         id="path16"
         d="M 0,52 H 128.333 V 0 H 0 Z" /></clipPath></defs><g
     transform="matrix(1.3333333,0,0,-1.3333333,0,69.332667)"
     id="g10"><g
       id="g12"><g
         clip-path="url(#clipPath18)"
         id="g14"><g
           transform="translate(109.5483,34.9141)"
           id="g20"><path
             id="path22"
             style="fill:#80cc28;fill-opacity:1;fill-rule:nonzero;stroke:none"
             d="m 0,0 v 10.475 c 0,0 0.046,3.363 -3.524,3.373 0,0 -3.658,0.198 -3.668,-3.363 V 0 l 3.648,-3.589 z" /></g><g
           transform="translate(101.7534,34.3066)"
           id="g24"><path
             id="path26"
             style="fill:#8d198f;fill-opacity:1;fill-rule:nonzero;stroke:none"
             d="m 0,0 h -10.476 c 0,0 -3.364,0.046 -3.374,-3.525 0,0 -0.197,-3.657 3.363,-3.667 l 10.586,0.006 3.532,3.601 z" /></g><g
           transform="translate(102.4536,26.5044)"
           id="g28"><path
             id="path30"
             style="fill:#f68712;fill-opacity:1;fill-rule:nonzero;stroke:none"
             d="m 0,0 v -10.474 c 0,0 -0.047,-3.362 3.525,-3.373 0,0 3.657,-0.198 3.667,3.364 V 0 l -3.66,3.623 z" /></g><g
           transform="translate(110.2495,27.1133)"
           id="g32"><path
             id="path34"
             style="fill:#bdbcbc;fill-opacity:1;fill-rule:nonzero;stroke:none"
             d="m 0,0 h 10.475 c 0,0 3.364,-0.046 3.375,3.527 0,0 0.196,3.655 -3.365,3.665 L -0.091,7.206 -3.656,3.603 Z" /></g><g
           transform="translate(9.3721,7.7666)"
           id="g36"><path
             id="path38"
             style="fill:#656263;fill-opacity:1;fill-rule:nonzero;stroke:none"
             d="m 0,0 c 0,-1.556 0.562,-2.116 2.084,-2.116 h 8.111 l 0.164,-2.55 C 7.512,-4.932 4.502,-4.964 1.556,-4.964 c -3.642,0 -4.866,1.921 -4.866,4.502 V 17.939 H 0 Z" /></g><g
           transform="translate(24.5981,7.5361)"
           id="g40"><path
             id="path42"
             style="fill:#656263;fill-opacity:1;fill-rule:nonzero;stroke:none"
             d="m 0,0 c 0,-1.59 0.727,-2.251 2.35,-2.251 1.457,0 3.607,0.629 5.461,2.251 V 2.912 H 1.918 C 0.429,2.846 0,2.084 0,0.86 Z m -2.549,11.152 c 2.284,0.399 5.595,0.762 7.844,0.762 3.741,0 5.726,-1.258 5.726,-5.328 V -4.667 H 8.506 L 8.142,-2.119 C 6.918,-3.377 4.634,-4.966 1.688,-4.966 c -2.946,0 -4.933,1.623 -4.933,4.57 V 1.29 c 0,2.581 1.656,4.038 4.569,4.038 H 7.811 V 6.586 C 7.778,8.571 7.082,9.201 4.601,9.201 3.011,9.201 0.264,9.002 -2.252,8.803 Z" /></g><g
           transform="translate(42.2734,5.6504)"
           id="g44"><path
             id="path46"
             style="fill:#656263;fill-opacity:1;fill-rule:nonzero;stroke:none"
             d="M 0,0 C 1.457,-0.365 2.978,-0.498 4.268,-0.498 7.182,-0.464 8.274,0.991 8.307,5.36 8.274,9.563 7.646,11.019 4.633,11.019 3.012,11.019 1.722,10.128 0,8.77 Z m 0,14.594 c 0,-1.389 -0.067,-2.515 -0.332,-3.674 1.821,1.921 3.939,2.88 6.089,2.88 3.972,0 5.86,-2.382 5.86,-8.44 0,-5.428 -1.588,-8.54 -7.282,-8.54 -2.252,0 -5.428,0.399 -7.546,1.16 V 20.387 H 0 Z" /></g><g
           transform="translate(65.7734,11.8711)"
           id="g48"><path
             id="path50"
             style="fill:#656263;fill-opacity:1;fill-rule:nonzero;stroke:none"
             d="M 0,0 C 1.357,0 1.587,1.159 1.587,2.15 1.554,4.104 0.629,4.866 -2.119,4.866 -5.263,4.866 -6.324,3.841 -6.422,0 Z m -6.388,-2.483 c 0.329,-3.508 1.72,-4.236 4.831,-4.236 1.656,0 3.904,0.199 5.66,0.397 L 4.401,-8.441 C 2.811,-9.135 -0.067,-9.4 -1.987,-9.4 c -5.627,0 -7.778,2.284 -7.778,8.505 0,6.39 2.25,8.474 7.48,8.474 5.032,0 7.082,-1.887 7.082,-5.429 0,-2.912 -1.222,-4.633 -3.938,-4.633 z" /></g><g
           transform="translate(76.5288,7.5361)"
           id="g52"><path
             id="path54"
             style="fill:#656263;fill-opacity:1;fill-rule:nonzero;stroke:none"
             d="m 0,0 c -0.032,-1.358 0.694,-2.054 2.086,-2.054 h 1.489 l 0.364,-2.482 c -0.663,-0.296 -2.251,-0.43 -3.079,-0.43 -2.482,0 -4.071,1.49 -4.071,4.237 v 19.23 H 0 Z" /></g><g
           transform="translate(86.0601,10.3496)"
           id="g56"><path
             id="path58"
             style="fill:#656263;fill-opacity:1;fill-rule:nonzero;stroke:none"
             d="m 0,0 c -2.68,0.693 -3.674,1.951 -3.674,4.601 0,3.673 1.887,4.534 6.389,4.5 C 4.835,9.066 7.613,8.869 9.601,8.538 L 9.335,6.221 C 7.317,6.287 5.231,6.388 3.212,6.388 c -2.879,0 -3.775,-0.034 -3.775,-1.787 0,-1.556 0.765,-1.689 2.286,-2.119 L 6.29,1.356 c 2.615,-0.695 3.774,-1.72 3.774,-4.536 0,-3.97 -2.184,-4.666 -7.017,-4.666 -1.092,0 -3.61,0.033 -6.42,0.464 l 0.229,2.384 c 1.49,-0.133 3.445,-0.165 5.528,-0.165 3.543,0 4.568,0.329 4.568,1.983 0,1.491 -0.927,1.657 -2.45,2.054 z" /></g></g></g></g></svg>